<?xml version="1.0" encoding="utf-8"?>
<!-- Generator: Adobe Illustrator 16.0.0, SVG Export Plug-In . SVG Version: 6.00 Build 0)  -->
<!DOCTYPE svg PUBLIC "-//W3C//DTD SVG 1.1//EN" "http://www.w3.org/Graphics/SVG/1.1/DTD/svg11.dtd">
<svg version="1.1" id="Layer_1" xmlns="http://www.w3.org/2000/svg" xmlns:xlink="http://www.w3.org/1999/xlink" x="0px" y="0px"
	 width="450px" height="191px" viewBox="0 0 450 191" enable-background="new 0 0 450 191" xml:space="preserve">
<g>
	<defs>
		<rect id="SVGID_1_" x="-128" y="-316.89" width="1190.55" height="841.89"/>
	</defs>
	<clipPath id="SVGID_2_">
		<use xlink:href="#SVGID_1_"  overflow="visible"/>
	</clipPath>
	<path clip-path="url(#SVGID_2_)" d="M319.691,122.845h3.751l1.008-3.711h-3.768L319.691,122.845z M332.199,113.953
		c0.355-0.406,0.772-0.729,1.255-0.971c0.483-0.241,1.002-0.36,1.562-0.36c0.659,0,1.207,0.147,1.635,0.446
		c0.432,0.298,0.781,0.721,1.048,1.266l3.2-1.712c-0.406-1.027-1.068-1.849-1.982-2.456c-0.911-0.61-2.056-0.915-3.427-0.915
		c-1.281,0-2.436,0.236-3.464,0.705c-1.028,0.468-1.9,1.081-2.618,1.837c-0.716,0.755-1.269,1.613-1.655,2.569
		c-0.387,0.96-0.58,1.934-0.58,2.922c0,0.889,0.154,1.692,0.466,2.408c0.309,0.718,0.744,1.332,1.303,1.837
		c0.56,0.508,1.221,0.9,1.991,1.173c0.766,0.272,1.615,0.409,2.541,0.409c1.269,0,2.354-0.233,3.254-0.696
		c0.903-0.463,1.675-1.062,2.323-1.797l-2.493-2.209c-0.432,0.431-0.869,0.763-1.315,0.999c-0.443,0.233-0.957,0.353-1.542,0.353
		c-0.772,0-1.411-0.244-1.914-0.732c-0.499-0.489-0.749-1.159-0.749-2.011c0-0.582,0.105-1.139,0.312-1.664
		C331.56,114.828,331.844,114.36,332.199,113.953 M369.663,109.519l-4.532,5.16l-1.769-5.16h-3.731l-3.581,13.326h3.655l2.038-7.616
		l1.963,5.18h0.073l4.779-5.217l-2.036,7.653h3.711l3.581-13.326H369.663z M353.958,110.983c-0.56-0.533-1.23-0.951-2.008-1.255
		c-0.781-0.307-1.647-0.457-2.601-0.457c-1.153,0-2.217,0.219-3.188,0.656c-0.969,0.437-1.809,1.02-2.513,1.743
		c-0.704,0.722-1.253,1.557-1.644,2.501c-0.395,0.946-0.591,1.926-0.591,2.942c0,0.849,0.151,1.641,0.457,2.371
		c0.304,0.729,0.736,1.36,1.295,1.894c0.557,0.531,1.227,0.951,2.008,1.256c0.78,0.306,1.646,0.457,2.598,0.457
		c1.155,0,2.217-0.22,3.188-0.656c0.971-0.438,1.809-1.02,2.513-1.744c0.704-0.721,1.252-1.556,1.647-2.501
		c0.392-0.946,0.591-1.925,0.591-2.942c0-0.849-0.154-1.641-0.457-2.371C354.949,112.148,354.517,111.518,353.958,110.983
		 M351.646,117.029c-0.184,0.499-0.44,0.956-0.766,1.368c-0.33,0.415-0.73,0.747-1.204,1.003c-0.472,0.252-1,0.38-1.579,0.38
		c-0.468,0-0.88-0.074-1.241-0.219c-0.358-0.147-0.661-0.353-0.908-0.619c-0.245-0.267-0.432-0.582-0.557-0.942
		c-0.128-0.363-0.19-0.753-0.19-1.173c0-0.494,0.091-0.991,0.275-1.494c0.182-0.499,0.44-0.956,0.775-1.371
		c0.336-0.411,0.736-0.743,1.202-0.997c0.468-0.255,0.991-0.383,1.57-0.383c0.468,0,0.88,0.074,1.241,0.22
		c0.36,0.146,0.661,0.354,0.908,0.618c0.247,0.268,0.432,0.582,0.56,0.942c0.125,0.361,0.19,0.753,0.19,1.17
		C351.922,116.029,351.828,116.526,351.646,117.029 M52.021,61.354c0.027-0.036,0.054-0.074,0.08-0.108
		C52.102,61.246,52.073,61.285,52.021,61.354 M87.868,135.617c-14.49-0.415-27.787-5.091-36.473-13.362
		c-1.448-1.295-2.706-2.723-3.861-4.19c-0.307-0.384-0.599-0.768-0.883-1.153l-0.009-0.009c-0.568-0.775-1.096-1.556-1.584-2.342
		c-0.034-0.058-0.068-0.114-0.102-0.171c-0.142-0.23-0.279-0.46-0.415-0.692c-0.099-0.171-0.199-0.344-0.295-0.514
		c-12.556-22.375,5.233-48.312,7.595-51.582c-2.123,2.781-4.425,6.504-6.262,9.676c0.433-0.764,0.799-1.414,1.097-1.935
		c0.611-1.079,0.926-1.636,0.926-1.636s-0.344,0.54-1.008,1.582c-0.335,0.519-0.747,1.169-1.238,1.939
		c-0.463,0.789-0.954,1.732-1.536,2.786c-0.562,1.044-1.145,2.237-1.729,3.577l-0.003,0.003c-0.599,1.377-1.204,2.91-1.792,4.597
		c-1.068,3.356-2.047,7.351-2.291,11.954c-0.253,4.583,0.264,9.779,2.078,15.063c0.841,2.672,2.178,5.263,3.691,7.854
		c1.653,2.49,3.481,5.028,5.776,7.241c4.449,4.586,10.236,8.251,16.733,10.908c6.502,2.703,13.796,4.095,21.395,4.617
		c7.635,0.48,15.52-0.027,23.695-1.484c1.97-0.4,3.961-0.805,5.966-1.21c0.465-0.089,2.018-0.528,3.679-0.994
		c2.374-0.61,5.026-1.312,7.366-1.937c3.521-0.939,6.318-1.701,6.318-1.701l0.187-0.078l1.434-5.354
		c-10.841,2.099-22.102,5.336-22.182,5.358C97.261,136.165,87.868,135.617,87.868,135.617"/>
	<path clip-path="url(#SVGID_2_)" d="M83.803,74.462c-1.764-0.812-3.797-1.22-6.091-1.22c-1.596,0-3.052,0.218-4.367,0.653
		c-1.318,0.434-2.456,1.03-3.422,1.786c-0.968,0.758-1.717,1.661-2.249,2.714c-0.53,1.051-0.797,2.181-0.797,3.385
		c0,0.954,0.167,1.803,0.505,2.544c0.335,0.744,0.841,1.417,1.511,2.019c0.673,0.605,1.513,1.172,2.521,1.703
		c1.008,0.534,2.184,1.068,3.527,1.599c1.118,0.449,2.072,0.877,2.856,1.283c0.784,0.406,1.406,0.821,1.868,1.241
		c0.463,0.42,0.798,0.863,1.008,1.326c0.211,0.463,0.316,0.974,0.316,1.534c0,0.814-0.191,1.556-0.568,2.229
		c-0.378,0.675-0.898,1.249-1.553,1.726c-0.659,0.477-1.443,0.855-2.351,1.136c-0.912,0.278-1.9,0.42-2.962,0.42
		c-2.184,0-4.032-0.386-5.543-1.156c-1.513-0.769-2.899-1.911-4.159-3.421l-2.519,1.973c1.261,1.763,2.899,3.129,4.912,4.095
		c2.016,0.965,4.382,1.448,7.099,1.448c1.567,0,3.03-0.225,4.39-0.673c1.357-0.449,2.532-1.065,3.526-1.852
		c0.994-0.783,1.778-1.723,2.351-2.816c0.574-1.093,0.861-2.286,0.861-3.575c0-0.954-0.162-1.803-0.483-2.544
		c-0.321-0.744-0.798-1.423-1.428-2.042c-0.628-0.616-1.42-1.184-2.371-1.703c-0.954-0.517-2.059-1.017-3.32-1.494
		c-1.147-0.449-2.135-0.869-2.958-1.261c-0.827-0.392-1.505-0.798-2.039-1.218c-0.531-0.423-0.917-0.872-1.153-1.349
		c-0.238-0.474-0.358-1.008-0.358-1.598c0-0.67,0.162-1.318,0.483-1.934c0.321-0.616,0.784-1.17,1.386-1.661
		c0.602-0.491,1.343-0.877,2.226-1.156c0.88-0.281,1.868-0.423,2.961-0.423c1.735,0,3.28,0.316,4.64,0.946
		c1.357,0.63,2.567,1.533,3.632,2.709l2.436-2.184C87.004,76.339,85.565,75.277,83.803,74.462 M113.565,76.391
		c-1.848-1.82-4.648-2.729-8.399-2.729H95.97l-7.894,29.397h3.317l2.814-10.458h6.971c2.155,0,4.123-0.236,5.9-0.713
		s3.302-1.175,4.577-2.101c1.275-0.923,2.26-2.05,2.962-3.379c0.698-1.329,1.05-2.848,1.05-4.557c0-1.147-0.184-2.169-0.548-3.067
		C114.755,77.89,114.239,77.092,113.565,76.391 M109.452,87.689c-1.877,1.315-4.566,1.973-8.064,1.973h-6.341l3.442-12.933h6.593
		c2.66,0,4.605,0.616,5.838,1.845c0.897,0.898,1.343,2.059,1.343,3.487C112.263,84.497,111.326,86.374,109.452,87.689
		 M156.424,91.636h7.978l5.796,11.423h3.822l-6.048-11.753c1.678-0.224,3.225-0.63,4.639-1.221c1.414-0.587,2.584-1.343,3.507-2.266
		c0.812-0.84,1.448-1.791,1.911-2.856c0.463-1.065,0.693-2.24,0.693-3.529c0-2.045-0.645-3.74-1.931-5.083
		c-1.849-1.792-4.606-2.689-8.274-2.689h-10.583l-7.896,29.397h3.319L156.424,91.636z M160.453,76.729h7.896
		c1.4,0,2.567,0.153,3.507,0.462c0.937,0.31,1.687,0.744,2.246,1.307c0.812,0.815,1.218,1.882,1.218,3.203
		c0,0.871-0.153,1.658-0.463,2.359c-0.306,0.704-0.741,1.349-1.3,1.939c-0.812,0.815-1.925,1.468-3.339,1.96
		c-1.415,0.491-3.087,0.738-5.018,0.738h-7.979L160.453,76.729z M147.266,92.497c0.883-2.141,1.323-4.347,1.323-6.613
		c0-1.792-0.315-3.459-0.943-4.998c-0.63-1.539-1.513-2.884-2.646-4.032c-1.136-1.147-2.493-2.05-4.075-2.708
		c-1.581-0.659-3.325-0.989-5.227-0.989c-2.436,0-4.697,0.497-6.784,1.491c-2.084,0.994-3.89,2.312-5.417,3.95
		c-1.525,1.638-2.729,3.521-3.612,5.648c-0.88,2.126-1.323,4.324-1.323,6.593c0,1.791,0.315,3.464,0.945,5.017
		c0.631,1.556,1.514,2.905,2.646,4.055c1.133,1.147,2.49,2.05,4.074,2.706c1.582,0.658,3.323,0.988,5.228,0.988
		c2.436,0,4.696-0.497,6.783-1.491c2.084-0.994,3.89-2.311,5.415-3.947C145.182,96.529,146.386,94.638,147.266,92.497 M137.021,99.3
		c-1.638,0.826-3.424,1.238-5.355,1.238c-1.485,0-2.814-0.25-3.99-0.755c-1.175-0.503-2.183-1.19-3.024-2.059
		c-0.84-0.866-1.485-1.896-1.93-3.086c-0.449-1.19-0.673-2.485-0.673-3.884c0-1.821,0.343-3.604,1.028-5.356
		c0.687-1.749,1.624-3.302,2.813-4.659c1.19-1.357,2.604-2.451,4.243-3.277c1.638-0.826,3.421-1.238,5.355-1.238
		c1.454,0,2.777,0.253,3.966,0.755c1.19,0.506,2.207,1.19,3.047,2.059c0.841,0.866,1.482,1.905,1.931,3.106
		c0.449,1.204,0.673,2.493,0.673,3.865c0,1.82-0.344,3.606-1.031,5.355c-0.684,1.749-1.624,3.302-2.814,4.66
		C140.071,97.384,138.657,98.474,137.021,99.3 M184.948,103.058h3.319l7.053-26.33h9.913l0.84-3.067h-23.141l-0.838,3.067h9.91
		L184.948,103.058z M220.624,98.984c-0.659,0.477-1.443,0.855-2.351,1.136c-0.912,0.278-1.9,0.42-2.962,0.42
		c-2.183,0-4.032-0.386-5.542-1.156c-1.514-0.769-2.899-1.911-4.16-3.421l-2.519,1.973c1.261,1.763,2.899,3.129,4.913,4.095
		c2.016,0.965,4.384,1.448,7.098,1.448c1.568,0,3.03-0.225,4.39-0.673c1.357-0.449,2.533-1.065,3.527-1.852
		c0.993-0.783,1.777-1.723,2.351-2.816c0.573-1.093,0.86-2.286,0.86-3.575c0-0.954-0.162-1.803-0.483-2.544
		c-0.321-0.744-0.798-1.423-1.428-2.042c-0.628-0.616-1.42-1.184-2.371-1.703c-0.954-0.517-2.059-1.017-3.319-1.494
		c-1.147-0.449-2.136-0.869-2.959-1.261c-0.826-0.392-1.505-0.798-2.039-1.218c-0.531-0.423-0.917-0.872-1.152-1.349
		c-0.239-0.474-0.358-1.008-0.358-1.598c0-0.67,0.162-1.318,0.482-1.934c0.321-0.616,0.784-1.17,1.386-1.661
		c0.602-0.491,1.343-0.877,2.226-1.156c0.88-0.281,1.869-0.423,2.962-0.423c1.735,0,3.279,0.316,4.639,0.946
		c1.358,0.63,2.567,1.533,3.632,2.709l2.436-2.184c-1.121-1.312-2.561-2.374-4.324-3.189c-1.766-0.812-3.797-1.22-6.091-1.22
		c-1.596,0-3.052,0.218-4.367,0.653c-1.317,0.434-2.456,1.03-3.421,1.786c-0.969,0.758-1.718,1.661-2.249,2.714
		c-0.531,1.051-0.798,2.181-0.798,3.385c0,0.954,0.167,1.803,0.505,2.544c0.335,0.744,0.841,1.417,1.511,2.019
		c0.673,0.605,1.513,1.172,2.521,1.703c1.008,0.534,2.184,1.068,3.527,1.599c1.119,0.449,2.073,0.877,2.856,1.283
		c0.784,0.406,1.406,0.821,1.869,1.241c0.463,0.42,0.798,0.863,1.008,1.326s0.315,0.974,0.315,1.534c0,0.814-0.19,1.556-0.568,2.229
		C221.799,97.933,221.28,98.507,220.624,98.984 M236.255,88.173c0.656,0.628,1.454,1.19,2.393,1.678
		c0.938,0.492,1.997,0.96,3.172,1.409c1.034,0.392,1.868,0.732,2.499,1.028c0.627,0.292,1.124,0.559,1.491,0.798
		c0.363,0.238,0.607,0.477,0.732,0.712c0.128,0.239,0.19,0.497,0.19,0.778c0,0.673-0.309,1.204-0.922,1.596
		c-0.617,0.392-1.414,0.588-2.394,0.588c-3.166,0-6.19-1.329-9.072-3.99l-5.25,5.418c1.596,1.707,3.549,3.03,5.858,3.967
		c2.311,0.94,4.906,1.408,7.791,1.408c1.82,0,3.498-0.244,5.04-0.735c1.539-0.489,2.862-1.182,3.967-2.079
		c1.107-0.894,1.967-1.968,2.584-3.211c0.616-1.247,0.922-2.627,0.922-4.137c0-1.093-0.187-2.059-0.565-2.899
		c-0.377-0.841-0.903-1.573-1.576-2.204c-0.673-0.63-1.476-1.198-2.413-1.701c-0.94-0.505-1.968-0.965-3.087-1.385
		c-1.008-0.392-1.834-0.73-2.478-1.008c-0.645-0.281-1.142-0.534-1.491-0.756c-0.349-0.224-0.596-0.443-0.736-0.653
		c-0.139-0.21-0.21-0.468-0.21-0.775c0-0.588,0.287-1.084,0.861-1.49c0.573-0.406,1.351-0.611,2.331-0.611
		c1.513,0,2.905,0.295,4.18,0.883c1.272,0.588,2.47,1.372,3.589,2.351l5.04-5.628c-1.429-1.343-3.144-2.407-5.145-3.191
		c-2.002-0.784-4.305-1.176-6.909-1.176c-1.792,0-3.45,0.245-4.975,0.736c-1.527,0.488-2.842,1.175-3.946,2.058
		c-1.108,0.881-1.977,1.937-2.604,3.169c-0.63,1.232-0.946,2.576-0.946,4.032c0,1.093,0.182,2.045,0.546,2.857
		C235.085,86.822,235.597,87.543,236.255,88.173 M264.539,73.662l-7.894,29.397h8.186l2.985-11.171h10.372l-3.024,11.171h8.189
		l7.894-29.397h-8.189l-2.939,11.003h-10.373l2.982-11.003H264.539z M300.139,102.597c1.724,0.673,3.635,1.008,5.733,1.008
		c2.547,0,4.892-0.483,7.033-1.448c2.144-0.966,3.993-2.246,5.546-3.842c1.553-1.599,2.763-3.439,3.631-5.523
		c0.867-2.087,1.304-4.248,1.304-6.488c0-1.877-0.338-3.62-1.011-5.23c-0.67-1.61-1.621-3.001-2.854-4.177
		c-1.232-1.176-2.709-2.101-4.429-2.774c-1.724-0.67-3.635-1.008-5.733-1.008c-2.55,0-4.892,0.485-7.036,1.451
		c-2.141,0.965-3.99,2.246-5.543,3.842c-1.553,1.595-2.765,3.438-3.631,5.522c-0.869,2.087-1.304,4.248-1.304,6.488
		c0,1.877,0.338,3.618,1.008,5.228c0.673,1.613,1.624,3.004,2.857,4.18C296.941,101.001,298.418,101.924,300.139,102.597
		 M300.809,86.492c0.404-1.105,0.974-2.113,1.713-3.025c0.735-0.908,1.621-1.644,2.649-2.203c1.031-0.559,2.186-0.84,3.467-0.84
		c1.03,0,1.942,0.161,2.734,0.482c0.795,0.324,1.462,0.778,2.005,1.366c0.542,0.588,0.954,1.281,1.232,2.079
		c0.278,0.797,0.417,1.658,0.417,2.581c0,1.093-0.201,2.192-0.604,3.296c-0.404,1.108-0.969,2.116-1.693,3.024
		c-0.724,0.912-1.607,1.647-2.652,2.206c-1.042,0.56-2.206,0.841-3.484,0.841c-1.03,0-1.945-0.162-2.737-0.483
		c-0.792-0.323-1.459-0.778-2.005-1.366c-0.542-0.587-0.954-1.28-1.232-2.078s-0.417-1.658-0.417-2.584
		C300.202,88.698,300.402,87.599,300.809,86.492 M324.022,103.059h23.771l1.846-6.928h-15.705l1.261-4.663h14.024l1.723-6.425
		h-14.026l1.218-4.453h15.452l1.891-6.928h-23.559L324.022,103.059z M369.095,96.172c-0.617,0.392-1.414,0.588-2.394,0.588
		c-3.166,0-6.187-1.329-9.072-3.99l-5.25,5.418c1.596,1.707,3.549,3.03,5.86,3.967c2.309,0.94,4.904,1.408,7.789,1.408
		c1.82,0,3.498-0.244,5.04-0.735c1.539-0.489,2.862-1.182,3.97-2.079c1.104-0.894,1.964-1.968,2.581-3.211
		c0.616-1.247,0.922-2.627,0.922-4.137c0-1.093-0.187-2.059-0.565-2.899c-0.377-0.841-0.903-1.573-1.576-2.204
		c-0.67-0.63-1.476-1.198-2.413-1.701c-0.94-0.505-1.968-0.965-3.087-1.385c-1.008-0.392-1.834-0.73-2.478-1.008
		c-0.645-0.281-1.142-0.534-1.491-0.756c-0.349-0.224-0.594-0.443-0.736-0.653c-0.139-0.21-0.21-0.468-0.21-0.775
		c0-0.588,0.287-1.084,0.864-1.49c0.573-0.406,1.348-0.611,2.328-0.611c1.513,0,2.905,0.295,4.18,0.883
		c1.274,0.588,2.47,1.372,3.589,2.351l5.04-5.628c-1.429-1.343-3.144-2.407-5.143-3.191c-2.004-0.784-4.307-1.176-6.908-1.176
		c-1.795,0-3.453,0.245-4.978,0.736c-1.527,0.488-2.842,1.175-3.946,2.058c-1.108,0.881-1.974,1.937-2.604,3.169
		c-0.63,1.232-0.946,2.576-0.946,4.032c0,1.093,0.182,2.045,0.546,2.857c0.363,0.813,0.874,1.533,1.533,2.163
		c0.659,0.628,1.456,1.19,2.393,1.678c0.937,0.492,1.997,0.96,3.172,1.409c1.034,0.392,1.868,0.732,2.499,1.028
		c0.627,0.292,1.127,0.559,1.491,0.798c0.363,0.238,0.607,0.477,0.732,0.712c0.128,0.239,0.19,0.497,0.19,0.778
		C370.017,95.249,369.708,95.78,369.095,96.172 M418.768,88.194c-1.048-5.372-3.2-10.287-5.733-14.751
		c-0.596-1.133-1.357-2.22-2.033-3.322c-0.698-1.099-1.391-2.002-2.084-3.007c-1.587-2.07-3.138-3.89-4.699-5.821
		c-1.616-1.843-3.393-3.512-5.069-5.253c-1.726-1.684-3.628-3.137-5.417-4.693c-7.437-5.889-15.575-10.225-23.749-13.278
		c-8.189-3.052-16.39-4.918-24.298-6.068c-7.913-1.166-15.557-1.536-22.795-1.482c-7.243,0.049-14.092,0.494-20.486,1.218
		c-12.806,1.343-23.795,3.692-32.753,5.853c-8.961,2.203-15.881,4.389-20.566,5.962c-4.682,1.579-7.136,2.553-7.136,2.553
		s2.499-0.835,7.252-2.147c4.745-1.328,11.767-3.044,20.759-4.852c4.501-0.863,9.496-1.775,14.961-2.513
		c5.464-0.767,11.384-1.465,17.727-1.886c6.338-0.471,13.101-0.65,20.2-0.423c7.096,0.216,14.552,0.764,22.19,2.141
		c7.635,1.346,15.475,3.385,23.178,6.525c6.398,2.598,12.707,5.963,18.565,10.259c4.901,3.853,50.119,41.252,5.653,76.665
		c-47.512,36.663-104.156,21.56-120.753,15.674c-1.84-0.738-3.646-1.448-5.42-2.133c-0.006,0-0.017-0.008-0.017-0.008l0.002,0.006
		c-26.182-10.092-45.073-14.49-55.099-16.33c-4.498-0.767-8.995-1.388-13.47-1.885h0.037c-0.176-0.021-0.347-0.034-0.523-0.055
		c-1.519-0.168-3.035-0.323-4.549-0.463c-0.303-0.022-0.604-0.04-0.905-0.063c-20.007-1.703-35.715-0.515-46.048,0.974
		c-0.55,0.061-1.13,0.134-1.703,0.21l-1.323,4.941c21.014-3.901,61.686-6.145,122.343,18.326l0.002-0.01l8.556,3.477
		c14.254,5.094,44.621,13.087,77.996,4.381c1.857-0.488,3.706-1.002,5.543-1.556c15.066-4.766,30.033-11.077,47.291-26.117
		c2.836-2.825,5.457-5.906,7.703-9.302c1.539-2.275,2.885-4.708,4.001-7.259c1.136-2.537,2.033-5.207,2.609-7.95
		C419.932,99.262,419.887,93.524,418.768,88.194"/>
</g>
</svg>
